<svg xmlns="http://www.w3.org/2000/svg" xmlns:xlink="http://www.w3.org/1999/xlink" x="0px" y="0px"
	viewBox="0 0 43.2 17.83" style="enable-background:new 0 0 43.2 17.83;" xml:space="preserve">
<style type="text/css">
	.st0{fill:#FFFFFF;}
</style>
<g>
	
	<!-- <rect x="0.17" class="st0" width="42.87" height="17.83"/> -->
	<path d="M1.61,9.38c0-2.46,0.24-4.3,1.1-5.37C3.26,3.32,4.1,2.95,5.09,2.95c1.01,0,1.83,0.38,2.4,1.07c0.86,1.06,1.1,2.91,1.1,5.37
		s-0.24,4.3-1.1,5.37c-0.57,0.69-1.38,1.04-2.4,1.04c-1,0-1.83-0.35-2.38-1.04C1.85,13.69,1.61,11.84,1.61,9.38z M6.98,9.38
		c0-2.16-0.15-3.73-0.71-4.46C6,4.55,5.58,4.36,5.09,4.36c-0.48,0-0.89,0.19-1.18,0.57c-0.54,0.72-0.7,2.29-0.7,4.46
		c0,2.16,0.16,3.73,0.7,4.47c0.28,0.35,0.7,0.54,1.18,0.54c0.49,0,0.91-0.19,1.18-0.54C6.83,13.12,6.98,11.54,6.98,9.38z
		M12.55,2.95v13.6h-1.62V2.95H12.55z"/>
	<path d="M15.78,6.79c0-1.38,0.42-2.44,1.13-3.1c0.61-0.54,1.43-0.83,2.41-0.83c1,0,1.82,0.29,2.41,0.83
		c0.73,0.66,1.13,1.72,1.13,3.1c0,1.4-0.4,2.46-1.13,3.12c-0.59,0.54-1.41,0.83-2.41,0.83c-0.98,0-1.8-0.29-2.41-0.83
		C16.2,9.25,15.78,8.18,15.78,6.79z M27.11,16.61H16.78v-4.62h1.62v3.21h8.71V16.61z M17.36,6.79c0,0.92,0.22,1.59,0.64,2.03
		c0.33,0.33,0.77,0.51,1.32,0.51s1-0.18,1.34-0.51c0.4-0.44,0.63-1.11,0.63-2.03c0-0.9-0.22-1.59-0.63-2.01
		c-0.34-0.33-0.79-0.51-1.34-0.51s-1,0.18-1.32,0.51C17.58,5.2,17.36,5.89,17.36,6.79z M26.87,12.47h-1.62V2.95h1.62V12.47z"/>
	<path d="M33.66,12.25c-0.6,1.56-2.17,2.82-3.9,3.39v-1.5c1.62-0.75,3.1-2.13,3.1-5.92v-5.1h1.61v5.1c0,3.79,1.47,5.16,3.08,5.92
		v1.5C35.84,15.05,34.27,13.79,33.66,12.25z M41.13,2.95v13.6h-1.62V9.28h-3.14V7.85h3.14V2.95H41.13z"/>
</g>
</svg>
